<?xml version="1.0" standalone="no"?>
<!DOCTYPE svg PUBLIC "-//W3C//DTD SVG 20010904//EN"
 "http://www.w3.org/TR/2001/REC-SVG-20010904/DTD/svg10.dtd">
<svg version="1.0" xmlns="http://www.w3.org/2000/svg"
 width="200.000000pt" height="200.000000pt" viewBox="0 0 200.000000 200.000000"
 preserveAspectRatio="xMidYMid meet">
<metadata>
Created by potrace 1.14, written by Peter Selinger 2001-2017
</metadata>
<g transform="translate(0.000000,200.000000) scale(0.100000,-0.100000)"
fill="#000000" stroke="none">
<path d="M878 1675 c-2 -2 -20 -6 -40 -9 -155 -24 -350 -179 -430 -341 -50
-100 -62 -154 -63 -270 0 -121 17 -186 77 -295 131 -237 415 -406 696 -414
158 -5 281 39 384 136 104 99 154 218 163 387 2 49 -20 189 -39 246 -28 80
-104 219 -145 264 -32 35 -44 41 -78 41 -30 0 -47 -7 -67 -26 -37 -38 -35 -88
6 -145 46 -64 94 -174 111 -255 37 -181 -24 -341 -157 -409 -50 -25 -70 -30
-130 -29 -133 2 -287 56 -398 141 -135 103 -209 249 -194 385 15 151 129 291
269 333 40 12 155 28 206 28 7 0 28 15 47 32 29 28 34 39 34 78 0 52 -32 99
-78 115 -26 9 -166 15 -174 7z"/>
</g>
</svg>
